<svg width="317" height="350" viewBox="0 0 317 350" fill="none" xmlns="http://www.w3.org/2000/svg">
<path d="M156.502 259.031C185.844 255.921 208.845 209.566 266.469 226.256C245.205 227.12 196.495 266.808 156.502 259.031Z" fill="url(#paint0_linear_222_3)"/>
<path d="M297.503 238.367C269.426 239.06 240.33 280.631 185.893 264.547C209.903 265.334 260.862 229.054 297.503 238.367Z" fill="url(#paint1_linear_222_3)"/>
<path d="M211.491 272.643C231.267 277.053 256.123 248.446 316.815 276.512C298.689 269.356 245.267 291.074 211.491 272.643Z" fill="url(#paint2_linear_222_3)"/>
<path d="M231.264 281.723C249.664 289.979 245.139 315.854 310.512 329.913C290.68 326.217 267.797 287.794 231.264 281.723Z" fill="url(#paint3_linear_222_3)"/>
<path d="M269.125 349.332C251.56 325.693 240.875 287.5 210.003 277.917C229.492 299.908 220.148 304.572 241.121 325.96C246.117 331.019 264.787 345.043 269.125 349.332Z" fill="url(#paint4_linear_222_3)"/>
<path d="M151.443 190.018C151.443 190.018 82.881 254.032 73.0413 260.453C113.874 248.176 113.076 212.187 164.677 200.028C144.176 209.573 123.984 247.524 93.8129 256.677C142.554 248.966 146.697 218.75 196.1 207.139C178.126 216.521 153.985 245.184 119.362 256.147C122.604 256.039 126.175 256.317 129.417 256.209C154.803 253.151 173.785 216.902 221.809 213.806C184.821 227.46 191.783 248.838 142.217 257.922C173.203 261.406 196.603 270.05 225.276 280.181C215.717 278.36 204.511 274.616 194.623 272.411C210.603 284.071 235.296 326.945 248.963 345.252C205.957 325.385 207.424 274.124 175.946 267.727C182.152 271.083 207.171 319.012 214.361 328.193C171.685 308.712 192.317 269.717 151.828 263.698C162.649 267.772 181.573 310.917 191.399 323.176C154.106 303.754 162.653 263.102 127.6 261.098C143.639 267.373 163.662 310.244 174.146 323.274C140.096 303.743 139.139 260.557 104.467 262.894C128.255 266.538 142.561 313.635 158.981 324.251C133.165 314.342 99.9636 260.748 84.3026 263.483C109.512 276.578 128.879 314.009 138.272 317.972C83.786 293.262 102.883 250.915 42.8115 274.991L41.331 270.924C84.4759 252 87.8562 213.102 151.443 190.018Z" fill="url(#paint5_linear_222_3)"/>
<path d="M72.6372 163.371C80.2406 134.861 129.592 119.293 121.998 59.7835C117.862 80.6591 71.1289 122.656 72.6372 163.371Z" fill="url(#paint6_linear_222_3)"/>
<path d="M114.825 27.2515C109.805 54.8845 64.2397 77.2129 71.7253 133.481C74.655 109.637 118.368 64.8906 114.825 27.2515Z" fill="url(#paint7_linear_222_3)"/>
<path d="M67.6791 106.94C66.3754 86.7197 98.4775 66.5791 80.119 2.28133C84.3905 21.295 54.6843 70.7224 67.6791 106.94Z" fill="url(#paint8_linear_222_3)"/>
<path d="M61.7607 86.002C56.4456 66.548 30.1821 67.023 26.3855 0.263544C26.9749 20.4283 61.4035 48.9697 61.7607 86.002Z" fill="url(#paint9_linear_222_3)"/>
<path d="M0.808548 38.1558C21.4519 59.1596 57.5377 75.6145 62.2392 107.595C43.5202 84.9446 37.47 93.4564 19.5762 69.4327C15.3497 63.7154 4.37623 43.1034 0.808548 38.1558Z" fill="url(#paint10_linear_222_3)"/>
<path d="M140.042 179.025C140.042 179.025 66.2093 236.881 58.3459 245.611C76.7805 207.164 112.215 213.509 132.196 164.404C119.599 183.185 78.9856 197.276 65.2836 225.672C80.4279 178.706 110.921 179.278 130.022 132.26C117.977 148.57 85.9302 167.996 69.7526 200.511C70.3594 197.324 70.6367 193.753 71.2435 190.567C78.1846 165.957 116.93 152.8 127.404 105.83C108.203 140.266 88.156 130.086 71.5278 177.655C72.8695 146.503 67.9427 122.05 62.3605 92.1562C62.683 101.881 64.6523 113.531 65.3042 123.641C56.2515 106.052 17.7039 75.0356 1.72737 58.7055C14.7153 104.263 65.5885 110.73 67.0482 142.818C64.6905 136.168 21.1988 104.049 13.2383 95.5263C25.8969 140.699 67.6098 126.335 67.3048 167.268C64.9506 155.948 25.245 130.589 14.6495 118.988C28.0812 158.833 69.5653 156.666 66.133 191.607C62.4092 174.792 23.144 148.39 11.8897 136.019C25.9281 172.677 68.449 180.291 60.7867 214.185C60.8594 190.12 16.5357 168.714 8.58205 150.851C14.3861 177.888 62.2117 218.966 57.0908 234.017C48.045 207.088 14.0532 182.173 11.5881 172.282C27.589 229.929 72.3773 217.6 39.3149 273.234L43.1045 275.324C68.4629 235.619 107.416 238.285 140.042 179.025Z" fill="url(#paint11_linear_222_3)"/>
<defs>
<linearGradient id="paint0_linear_222_3" x1="206.739" y1="132.317" x2="40.488" y2="274.604" gradientUnits="userSpaceOnUse">
<stop stop-color="#FEA300"/>
<stop offset="1" stop-color="#F52C00"/>
</linearGradient>
<linearGradient id="paint1_linear_222_3" x1="206.739" y1="132.317" x2="40.488" y2="274.604" gradientUnits="userSpaceOnUse">
<stop stop-color="#FEA300"/>
<stop offset="1" stop-color="#F52C00"/>
</linearGradient>
<linearGradient id="paint2_linear_222_3" x1="206.739" y1="132.317" x2="40.488" y2="274.604" gradientUnits="userSpaceOnUse">
<stop stop-color="#FEA300"/>
<stop offset="1" stop-color="#F52C00"/>
</linearGradient>
<linearGradient id="paint3_linear_222_3" x1="206.739" y1="132.317" x2="40.488" y2="274.604" gradientUnits="userSpaceOnUse">
<stop stop-color="#FEA300"/>
<stop offset="1" stop-color="#F52C00"/>
</linearGradient>
<linearGradient id="paint4_linear_222_3" x1="206.739" y1="132.317" x2="40.488" y2="274.604" gradientUnits="userSpaceOnUse">
<stop stop-color="#FEA300"/>
<stop offset="1" stop-color="#F52C00"/>
</linearGradient>
<linearGradient id="paint5_linear_222_3" x1="206.739" y1="132.317" x2="40.488" y2="274.604" gradientUnits="userSpaceOnUse">
<stop stop-color="#FEA300"/>
<stop offset="1" stop-color="#F52C00"/>
</linearGradient>
<linearGradient id="paint6_linear_222_3" x1="206.739" y1="132.317" x2="40.488" y2="274.604" gradientUnits="userSpaceOnUse">
<stop stop-color="#FEA300"/>
<stop offset="1" stop-color="#F52C00"/>
</linearGradient>
<linearGradient id="paint7_linear_222_3" x1="206.739" y1="132.317" x2="40.488" y2="274.604" gradientUnits="userSpaceOnUse">
<stop stop-color="#FEA300"/>
<stop offset="1" stop-color="#F52C00"/>
</linearGradient>
<linearGradient id="paint8_linear_222_3" x1="206.739" y1="132.317" x2="40.488" y2="274.604" gradientUnits="userSpaceOnUse">
<stop stop-color="#FEA300"/>
<stop offset="1" stop-color="#F52C00"/>
</linearGradient>
<linearGradient id="paint9_linear_222_3" x1="206.739" y1="132.317" x2="40.488" y2="274.604" gradientUnits="userSpaceOnUse">
<stop stop-color="#FEA300"/>
<stop offset="1" stop-color="#F52C00"/>
</linearGradient>
<linearGradient id="paint10_linear_222_3" x1="206.739" y1="132.317" x2="40.488" y2="274.604" gradientUnits="userSpaceOnUse">
<stop stop-color="#FEA300"/>
<stop offset="1" stop-color="#F52C00"/>
</linearGradient>
<linearGradient id="paint11_linear_222_3" x1="206.739" y1="132.317" x2="40.488" y2="274.604" gradientUnits="userSpaceOnUse">
<stop stop-color="#FEA300"/>
<stop offset="1" stop-color="#F52C00"/>
</linearGradient>
</defs>
</svg>
