<svg width="50" height="49" viewBox="0 0 50 49" fill="none" xmlns="http://www.w3.org/2000/svg">
<path d="M30.5645 0.525712C24.5161 0.602458 20.9614 4.77373 19.9027 12.8922C14.1565 18.8846 11.3562 25.7876 11.8114 34.0553C11.2056 34.7377 9.4665 36.5588 7.87841 38.6829C3.72002 39.8216 0.544119 40.8069 0.544119 40.8069C0.165711 40.9583 -0.0617341 41.3379 0.0147586 41.7174C0.165711 42.097 0.544119 42.3251 0.922507 42.2484C0.922507 42.2484 3.26742 41.566 6.59461 40.5787C6.06318 41.4892 5.61031 42.3999 5.30635 43.3104C4.77699 45.0549 2.81052 47.1789 3.5673 48.3923C3.8692 48.8465 4.39855 49 4.92792 49C13.0192 48.5457 18.0111 40.05 18.9189 38.38C20.4305 37.849 21.7932 37.2412 23.0773 36.5588C28.4477 35.5735 28.7494 36.1792 31.5471 35.0425H35.0251C36.5367 35.0425 37.672 33.4495 36.6132 31.4022C38.3523 29.5064 39.3365 27.6085 39.411 27.4571C39.562 27.0775 39.411 26.6232 39.0326 26.4718C38.6542 26.3203 38.2013 26.4718 38.0504 26.8514C38.0504 26.8514 37.2191 28.5211 35.631 30.2655C34.4213 29.355 33.5901 29.5064 30.9433 29.5064C34.5723 23.7423 33.9685 17.9013 33.9685 9.85931C42.1365 9.85931 46.2205 9.47973 48.7138 11.6038C49.2432 12.058 50 11.6805 50 10.996C49.9256 2.87754 38.505 -1.59829 30.5645 0.525712ZM5.00435 47.4822C5.23182 46.8745 6.44146 44.8272 6.8199 43.8419C7.95512 40.4277 11.886 36.2565 12.9446 35.1175C13.7759 35.269 15.9698 35.8767 17.5579 37.8493C16.4227 39.6684 11.886 47.0276 5.00435 47.4822ZM35.5564 32.9938C35.5564 33.2966 35.329 33.4481 35.0271 33.4481H34.2702C34.7231 33.1452 35.1015 32.8403 35.4799 32.4628C35.4799 32.691 35.5564 32.8424 35.5564 32.9938ZM33.5155 31.0212C33.8939 31.0212 34.2723 31.098 34.5742 31.3241C31.0961 34.5101 28.2219 34.2819 26.332 34.5101C27.6927 33.4481 28.9023 32.3093 29.9611 31.0212L33.5155 31.0212ZM18.6166 36.8623C18.6166 36.7855 18.5401 36.7855 18.5401 36.7108C18.9185 35.8003 20.5066 33.3734 26.2529 30.9468C26.6313 30.7954 26.7822 30.3391 26.6313 29.9615C26.4803 29.582 26.0254 29.4305 25.6491 29.582C20.2787 31.8574 18.1613 34.2842 17.4069 35.6513C15.8953 34.3611 14.2307 33.9069 13.323 33.6787C13.0955 28.823 16.7266 24.9544 21.2634 22.8304C21.6418 22.679 21.7928 22.2227 21.6418 21.8451C21.4909 21.4655 21.036 21.3141 20.6596 21.4655C17.256 23.1353 15.2151 25.1058 13.9288 27.0039C14.911 22.2249 17.3324 17.8999 21.2631 13.8058C21.414 13.6544 21.414 13.503 21.4905 13.3516C22.2474 7.13089 24.4392 3.56521 28.2213 2.42887C24.8177 4.17332 22.7001 8.49822 24.8942 12.8976C24.9707 14.0363 24.8942 14.9448 24.5923 15.5526C21.9455 21.1653 28.5253 24.9593 32.3819 21.6963C31.0192 29.5806 25.9512 34.1334 18.6164 36.8627L18.6166 36.8623ZM32.4567 18.8082C31.0196 22.2224 27.3141 21.8428 25.9535 19.8702C25.1967 18.8849 25.1967 17.518 25.8026 16.1532C26.2554 15.2426 26.4084 14.0292 26.2554 12.5876C26.2554 12.5109 26.2554 12.3595 26.1789 12.2848C23.985 8.11351 26.6318 4.16843 29.8845 3.33476V5.91304C29.8845 7.58277 30.9432 9.02232 32.4548 9.55332C32.4568 20.6295 32.4567 17.8227 32.4567 18.8082ZM33.8174 8.33951C32.7586 8.33951 31.7764 7.58033 31.4724 6.59506C36.3132 6.44364 41.4535 6.59506 45.085 8.56763C43.1185 8.26479 41.9086 8.33951 33.8174 8.33951ZM31.398 5.07884V1.8161C37.5227 0.451265 45.9925 3.25766 47.9591 8.64213C43.8752 5.23001 37.4465 4.85067 31.398 5.07884Z" fill="url(#paint0_linear_47_12)"/>
<defs>
<linearGradient id="paint0_linear_47_12" x1="25" y1="0" x2="25" y2="49" gradientUnits="userSpaceOnUse">
<stop stop-color="#FEA300"/>
<stop offset="1" stop-color="#F52C00"/>
</linearGradient>
</defs>
</svg>
