<svg width="32" height="37" viewBox="0 0 32 37" fill="none" xmlns="http://www.w3.org/2000/svg">
<path d="M10.6667 3.52381V0H21.3333V3.52381H10.6667ZM14.2222 22.9048H17.7778V12.3333H14.2222V22.9048ZM16 37C13.8074 37 11.7407 36.5816 9.8 35.7446C7.85926 34.9077 6.16296 33.7698 4.71111 32.331C3.25926 30.8921 2.11111 29.2109 1.26667 27.2875C0.422222 25.3641 0 23.3159 0 21.1429C0 18.9698 0.422222 16.9216 1.26667 14.9982C2.11111 13.0748 3.25926 11.3937 4.71111 9.95476C6.16296 8.51587 7.85926 7.37798 9.8 6.54107C11.7407 5.70417 13.8074 5.28571 16 5.28571C17.837 5.28571 19.6 5.57937 21.2889 6.16667C22.9778 6.75397 24.563 7.60556 26.0444 8.72143L28.5333 6.25476L31.0222 8.72143L28.5333 11.1881C29.6593 12.6563 30.5185 14.2274 31.1111 15.9012C31.7037 17.575 32 19.3222 32 21.1429C32 23.3159 31.5778 25.3641 30.7333 27.2875C29.8889 29.2109 28.7407 30.8921 27.2889 32.331C25.837 33.7698 24.1407 34.9077 22.2 35.7446C20.2593 36.5816 18.1926 37 16 37ZM16 33.4762C19.437 33.4762 22.3704 32.2722 24.8 29.8643C27.2296 27.4564 28.4444 24.5492 28.4444 21.1429C28.4444 17.7365 27.2296 14.8294 24.8 12.4214C22.3704 10.0135 19.437 8.80952 16 8.80952C12.563 8.80952 9.62963 10.0135 7.2 12.4214C4.77037 14.8294 3.55556 17.7365 3.55556 21.1429C3.55556 24.5492 4.77037 27.4564 7.2 29.8643C9.62963 32.2722 12.563 33.4762 16 33.4762Z" fill="url(#paint0_linear_201_185)"/>
<defs>
<linearGradient id="paint0_linear_201_185" x1="16" y1="0" x2="16" y2="37" gradientUnits="userSpaceOnUse">
<stop stop-color="#FEA300"/>
<stop offset="1" stop-color="#F52C00"/>
</linearGradient>
</defs>
</svg>
