<svg width="30" height="30" viewBox="0 0 30 30" fill="none" xmlns="http://www.w3.org/2000/svg">
<path d="M13.125 21.875H16.0417V13.125H13.125V21.875ZM14.5833 10.2083C14.9965 10.2083 15.3429 10.0686 15.6224 9.78906C15.9019 9.50955 16.0417 9.16319 16.0417 8.75C16.0417 8.33681 15.9019 7.99045 15.6224 7.71094C15.3429 7.43142 14.9965 7.29167 14.5833 7.29167C14.1701 7.29167 13.8238 7.43142 13.5443 7.71094C13.2648 7.99045 13.125 8.33681 13.125 8.75C13.125 9.16319 13.2648 9.50955 13.5443 9.78906C13.8238 10.0686 14.1701 10.2083 14.5833 10.2083ZM14.5833 29.1667C12.566 29.1667 10.6701 28.7839 8.89583 28.0182C7.12153 27.2526 5.57812 26.2135 4.26562 24.901C2.95312 23.5885 1.91406 22.0451 1.14844 20.2708C0.382812 18.4965 0 16.6007 0 14.5833C0 12.566 0.382812 10.6701 1.14844 8.89583C1.91406 7.12153 2.95312 5.57812 4.26562 4.26562C5.57812 2.95312 7.12153 1.91406 8.89583 1.14844C10.6701 0.382812 12.566 0 14.5833 0C16.6007 0 18.4965 0.382812 20.2708 1.14844C22.0451 1.91406 23.5885 2.95312 24.901 4.26562C26.2135 5.57812 27.2526 7.12153 28.0182 8.89583C28.7839 10.6701 29.1667 12.566 29.1667 14.5833C29.1667 16.6007 28.7839 18.4965 28.0182 20.2708C27.2526 22.0451 26.2135 23.5885 24.901 24.901C23.5885 26.2135 22.0451 27.2526 20.2708 28.0182C18.4965 28.7839 16.6007 29.1667 14.5833 29.1667ZM14.5833 26.25C17.8403 26.25 20.599 25.1198 22.8594 22.8594C25.1198 20.599 26.25 17.8403 26.25 14.5833C26.25 11.3264 25.1198 8.56771 22.8594 6.30729C20.599 4.04688 17.8403 2.91667 14.5833 2.91667C11.3264 2.91667 8.56771 4.04688 6.30729 6.30729C4.04688 8.56771 2.91667 11.3264 2.91667 14.5833C2.91667 17.8403 4.04688 20.599 6.30729 22.8594C8.56771 25.1198 11.3264 26.25 14.5833 26.25Z" fill="url(#paint0_linear_195_83)"/>
<defs>
<linearGradient id="paint0_linear_195_83" x1="14.5833" y1="0" x2="14.5833" y2="29.1667" gradientUnits="userSpaceOnUse">
<stop stop-color="#FEA300"/>
<stop offset="1" stop-color="#F52C00"/>
</linearGradient>
</defs>
</svg>
