<svg width="49" height="48" viewBox="0 0 49 48" fill="none" xmlns="http://www.w3.org/2000/svg">
<path d="M29.9533 0.514983C24.0257 0.590163 20.5422 4.6763 19.5046 12.6291C13.8733 18.4992 11.129 25.2613 11.5752 33.3603C10.9814 34.0288 9.27717 35.8128 7.72085 37.8934C3.64562 39.0089 0.533237 39.9741 0.533237 39.9741C0.162397 40.1224 -0.0604994 40.4942 0.0144634 40.866C0.162397 41.2379 0.533237 41.4614 0.904056 41.3862C0.904056 41.3862 3.20207 40.7177 6.46272 39.7506C5.94192 40.6425 5.49811 41.5346 5.20023 42.4265C4.68145 44.1354 2.75431 46.216 3.49595 47.4047C3.79182 47.8497 4.31058 48 4.82936 48C12.7588 47.555 17.6508 39.2326 18.5405 37.5967C20.0219 37.0765 21.3573 36.4812 22.6158 35.8127C27.8787 34.8475 28.1744 35.4409 30.9161 34.3274H34.3246C35.806 34.3274 36.9185 32.7669 35.881 30.7614C37.5852 28.9042 38.5498 27.0451 38.6228 26.8967C38.7707 26.5249 38.6228 26.0799 38.2519 25.9315C37.8811 25.7832 37.4373 25.9315 37.2894 26.3034C37.2894 26.3034 36.4747 27.939 34.9184 29.6479C33.7329 28.7559 32.9183 28.9042 30.3244 28.9042C33.8809 23.2578 33.2891 17.536 33.2891 9.6581C41.2938 9.6581 45.2961 9.28626 47.7395 11.3669C48.2583 11.8119 49 11.4421 49 10.7716C48.9271 2.81881 37.7349 -1.56568 29.9533 0.514983ZM4.90427 46.5132C5.12718 45.9178 6.31263 43.9123 6.68351 42.9472C7.79602 39.6027 11.6483 35.5166 12.6857 34.4009C13.5003 34.5492 15.6504 35.1445 17.2067 37.0769C16.0942 38.8588 11.6483 46.0679 4.90427 46.5132ZM34.8453 32.3205C34.8453 32.6171 34.6224 32.7655 34.3265 32.7655H33.5848C34.0286 32.4688 34.3995 32.1701 34.7703 31.8003C34.7703 32.0238 34.8453 32.1721 34.8453 32.3205ZM32.8452 30.3882C33.216 30.3882 33.5868 30.4633 33.8827 30.6848C30.4742 33.8058 27.6574 33.5823 25.8054 33.8058C27.1388 32.7655 28.3243 31.65 29.3619 30.3882L32.8452 30.3882ZM18.2443 36.11C18.2443 36.0348 18.1693 36.0348 18.1693 35.9616C18.5401 35.0697 20.0964 32.6923 25.7278 30.3153C26.0987 30.1669 26.2466 29.7199 26.0987 29.3501C25.9507 28.9782 25.5049 28.8299 25.1361 28.9783C19.8731 31.2073 17.798 33.5846 17.0588 34.9237C15.5774 33.6599 13.9461 33.2149 13.0565 32.9914C12.8336 28.2348 16.3921 24.4451 20.8381 22.3645C21.209 22.2161 21.3569 21.7691 21.209 21.3993C21.0611 21.0275 20.6152 20.8791 20.2464 21.0275C16.9108 22.6631 14.9108 24.5934 13.6502 26.4528C14.6128 21.7713 16.9858 17.5346 20.8378 13.5241C20.9857 13.3757 20.9857 13.2274 21.0607 13.0791C21.8024 6.98536 23.9504 3.49245 27.6569 2.3793C24.3214 4.08815 22.2461 8.32479 24.3963 12.6344C24.4713 13.7498 24.3963 14.6398 24.1005 15.2352C21.5066 20.7333 27.9548 24.4499 31.7342 21.2535C30.3988 28.9769 25.4322 33.4368 18.244 36.1104L18.2443 36.11ZM31.8076 18.4244C30.3992 21.7689 26.7678 21.397 25.4345 19.4647C24.6928 18.4995 24.6928 17.1605 25.2865 15.8235C25.7303 14.9316 25.8803 13.7429 25.7303 12.3307C25.7303 12.2556 25.7303 12.1072 25.6554 12.0341C23.5053 7.94793 26.0992 4.08336 29.2868 3.2667V5.79236C29.2868 7.42802 30.3243 8.83819 31.8057 9.35835C31.8077 20.2085 31.8076 17.4589 31.8076 18.4244ZM33.141 8.16931C32.1035 8.16931 31.1409 7.42563 30.843 6.46047C35.5869 6.31214 40.6245 6.46047 44.1833 8.39278C42.2561 8.09612 41.0705 8.16931 33.141 8.16931ZM30.7701 4.97519V1.77904C36.7723 0.442056 45.0726 3.19118 46.9999 8.46576C42.9977 5.12328 36.6976 4.75167 30.7701 4.97519Z" fill="#989898"/>
</svg>
