<svg width="268" height="48" viewBox="0 0 268 48" fill="none" xmlns="http://www.w3.org/2000/svg">
<path d="M71.792 15.728C69.5947 14.448 67.1627 13.712 64.496 13.52V34H62.128V13.52C59.504 13.6907 57.0613 14.4267 54.8 15.728L53.936 13.872C56.7093 12.2293 59.824 11.408 63.28 11.408C66.8 11.408 69.9253 12.2293 72.656 13.872L71.792 15.728ZM90.336 17.168V34H88.16V30.928C87.5627 31.952 86.7413 32.752 85.696 33.328C84.6507 33.8827 83.456 34.16 82.112 34.16C79.9147 34.16 78.176 33.552 76.896 32.336C75.6373 31.0987 75.008 29.296 75.008 26.928V17.168H77.28V26.704C77.28 28.4747 77.7173 29.8187 78.592 30.736C79.4667 31.6533 80.7147 32.112 82.336 32.112C84.1067 32.112 85.504 31.5787 86.528 30.512C87.552 29.424 88.064 27.92 88.064 26V17.168H90.336ZM103.675 34.16C102.011 34.16 100.518 33.7973 99.1953 33.072C97.8939 32.3467 96.8699 31.3333 96.1233 30.032C95.3766 28.7093 95.0033 27.2267 95.0033 25.584C95.0033 23.9413 95.3766 22.4693 96.1233 21.168C96.8699 19.8667 97.8939 18.8533 99.1953 18.128C100.518 17.4027 102.011 17.04 103.675 17.04C105.126 17.04 106.417 17.328 107.547 17.904C108.699 18.4587 109.606 19.28 110.267 20.368L108.571 21.52C108.017 20.688 107.313 20.0693 106.459 19.664C105.606 19.2373 104.678 19.024 103.675 19.024C102.459 19.024 101.361 19.3013 100.379 19.856C99.4193 20.3893 98.6619 21.1573 98.1073 22.16C97.5739 23.1627 97.3073 24.304 97.3073 25.584C97.3073 26.8853 97.5739 28.0373 98.1073 29.04C98.6619 30.0213 99.4193 30.7893 100.379 31.344C101.361 31.8773 102.459 32.144 103.675 32.144C104.678 32.144 105.606 31.9413 106.459 31.536C107.313 31.1307 108.017 30.512 108.571 29.68L110.267 30.832C109.606 31.92 108.699 32.752 107.547 33.328C106.395 33.8827 105.105 34.16 103.675 34.16ZM129.809 17.168V34H127.633V30.672C126.951 31.8027 126.044 32.6667 124.913 33.264C123.804 33.8613 122.545 34.16 121.137 34.16C119.559 34.16 118.129 33.7973 116.849 33.072C115.569 32.3467 114.567 31.3333 113.841 30.032C113.116 28.7307 112.753 27.248 112.753 25.584C112.753 23.92 113.116 22.4373 113.841 21.136C114.567 19.8347 115.569 18.832 116.849 18.128C118.129 17.4027 119.559 17.04 121.137 17.04C122.503 17.04 123.729 17.328 124.817 17.904C125.927 18.4587 126.833 19.28 127.537 20.368V17.168H129.809ZM121.329 32.144C122.503 32.144 123.559 31.8773 124.497 31.344C125.457 30.7893 126.204 30.0107 126.737 29.008C127.292 28.0053 127.569 26.864 127.569 25.584C127.569 24.304 127.292 23.1627 126.737 22.16C126.204 21.1573 125.457 20.3893 124.497 19.856C123.559 19.3013 122.503 19.024 121.329 19.024C120.135 19.024 119.057 19.3013 118.097 19.856C117.159 20.3893 116.412 21.1573 115.857 22.16C115.324 23.1627 115.057 24.304 115.057 25.584C115.057 26.864 115.324 28.0053 115.857 29.008C116.412 30.0107 117.159 30.7893 118.097 31.344C119.057 31.8773 120.135 32.144 121.329 32.144ZM144.713 17.04C146.825 17.04 148.499 17.6587 149.737 18.896C150.995 20.112 151.625 21.8933 151.625 24.24V34H149.353V24.464C149.353 22.7147 148.915 21.3813 148.041 20.464C147.166 19.5467 145.918 19.088 144.297 19.088C142.483 19.088 141.043 19.632 139.977 20.72C138.931 21.7867 138.409 23.2693 138.409 25.168V34H136.137V17.168H138.313V20.272C138.931 19.248 139.785 18.4587 140.873 17.904C141.982 17.328 143.262 17.04 144.713 17.04ZM164.736 34.16C163.114 34.16 161.653 33.7973 160.352 33.072C159.05 32.3253 158.026 31.3013 157.28 30C156.533 28.6987 156.16 27.2267 156.16 25.584C156.16 23.9413 156.533 22.4693 157.28 21.168C158.026 19.8667 159.05 18.8533 160.352 18.128C161.653 17.4027 163.114 17.04 164.736 17.04C166.357 17.04 167.818 17.4027 169.12 18.128C170.421 18.8533 171.434 19.8667 172.16 21.168C172.906 22.4693 173.28 23.9413 173.28 25.584C173.28 27.2267 172.906 28.6987 172.16 30C171.434 31.3013 170.421 32.3253 169.12 33.072C167.818 33.7973 166.357 34.16 164.736 34.16ZM164.736 32.144C165.93 32.144 166.997 31.8773 167.936 31.344C168.896 30.7893 169.642 30.0107 170.176 29.008C170.709 28.0053 170.976 26.864 170.976 25.584C170.976 24.304 170.709 23.1627 170.176 22.16C169.642 21.1573 168.896 20.3893 167.936 19.856C166.997 19.3013 165.93 19.024 164.736 19.024C163.541 19.024 162.464 19.3013 161.504 19.856C160.565 20.3893 159.818 21.1573 159.264 22.16C158.73 23.1627 158.464 24.304 158.464 25.584C158.464 26.864 158.73 28.0053 159.264 29.008C159.818 30.0107 160.565 30.7893 161.504 31.344C162.464 31.8773 163.541 32.144 164.736 32.144ZM186.59 17.04C188.169 17.04 189.598 17.4027 190.878 18.128C192.158 18.832 193.161 19.8347 193.886 21.136C194.611 22.4373 194.974 23.92 194.974 25.584C194.974 27.2693 194.611 28.7627 193.886 30.064C193.161 31.3653 192.158 32.3787 190.878 33.104C189.619 33.808 188.19 34.16 186.59 34.16C185.225 34.16 183.987 33.8827 182.878 33.328C181.79 32.752 180.894 31.92 180.19 30.832V40.208H177.918V17.168H180.094V20.496C180.777 19.3867 181.673 18.5333 182.782 17.936C183.913 17.3387 185.182 17.04 186.59 17.04ZM186.43 32.144C187.603 32.144 188.67 31.8773 189.63 31.344C190.59 30.7893 191.337 30.0107 191.87 29.008C192.425 28.0053 192.702 26.864 192.702 25.584C192.702 24.304 192.425 23.1733 191.87 22.192C191.337 21.1893 190.59 20.4107 189.63 19.856C188.67 19.3013 187.603 19.024 186.43 19.024C185.235 19.024 184.158 19.3013 183.198 19.856C182.259 20.4107 181.513 21.1893 180.958 22.192C180.425 23.1733 180.158 24.304 180.158 25.584C180.158 26.864 180.425 28.0053 180.958 29.008C181.513 30.0107 182.259 30.7893 183.198 31.344C184.158 31.8773 185.235 32.144 186.43 32.144ZM206.806 32.144C207.851 32.144 208.811 31.9627 209.686 31.6C210.582 31.216 211.339 30.6613 211.958 29.936L213.238 31.408C212.491 32.304 211.563 32.9867 210.454 33.456C209.344 33.9253 208.118 34.16 206.774 34.16C205.046 34.16 203.51 33.7973 202.166 33.072C200.822 32.3253 199.776 31.3013 199.03 30C198.283 28.6987 197.91 27.2267 197.91 25.584C197.91 23.9413 198.262 22.4693 198.966 21.168C199.691 19.8667 200.683 18.8533 201.942 18.128C203.2 17.4027 204.63 17.04 206.23 17.04C207.723 17.04 209.067 17.3813 210.262 18.064C211.478 18.7467 212.438 19.696 213.142 20.912C213.867 22.128 214.251 23.5147 214.294 25.072L200.47 27.76C200.896 29.1253 201.664 30.2027 202.774 30.992C203.904 31.76 205.248 32.144 206.806 32.144ZM206.23 18.992C205.056 18.992 204 19.2693 203.062 19.824C202.144 20.3573 201.419 21.1147 200.886 22.096C200.374 23.056 200.118 24.1653 200.118 25.424C200.118 25.744 200.128 25.9787 200.15 26.128L212.022 23.824C211.766 22.416 211.115 21.264 210.07 20.368C209.024 19.4507 207.744 18.992 206.23 18.992ZM208.342 10.576H211.382L206.198 14.544H203.958L208.342 10.576ZM234.278 10.256V34H232.102V30.672C231.419 31.8027 230.513 32.6667 229.382 33.264C228.273 33.8613 227.014 34.16 225.606 34.16C224.027 34.16 222.598 33.7973 221.318 33.072C220.038 32.3467 219.035 31.3333 218.31 30.032C217.585 28.7307 217.222 27.248 217.222 25.584C217.222 23.92 217.585 22.4373 218.31 21.136C219.035 19.8347 220.038 18.832 221.318 18.128C222.598 17.4027 224.027 17.04 225.606 17.04C226.971 17.04 228.198 17.328 229.286 17.904C230.395 18.4587 231.302 19.28 232.006 20.368V10.256H234.278ZM225.798 32.144C226.971 32.144 228.027 31.8773 228.966 31.344C229.926 30.7893 230.673 30.0107 231.206 29.008C231.761 28.0053 232.038 26.864 232.038 25.584C232.038 24.304 231.761 23.1627 231.206 22.16C230.673 21.1573 229.926 20.3893 228.966 19.856C228.027 19.3013 226.971 19.024 225.798 19.024C224.603 19.024 223.526 19.3013 222.566 19.856C221.627 20.3893 220.881 21.1573 220.326 22.16C219.793 23.1627 219.526 24.304 219.526 25.584C219.526 26.864 219.793 28.0053 220.326 29.008C220.881 30.0107 221.627 30.7893 222.566 31.344C223.526 31.8773 224.603 32.144 225.798 32.144ZM240.606 17.168H242.878V34H240.606V17.168ZM241.758 13.488C241.288 13.488 240.894 13.328 240.574 13.008C240.254 12.688 240.094 12.304 240.094 11.856C240.094 11.4293 240.254 11.056 240.574 10.736C240.894 10.416 241.288 10.256 241.758 10.256C242.227 10.256 242.622 10.416 242.942 10.736C243.262 11.0347 243.422 11.3973 243.422 11.824C243.422 12.2933 243.262 12.688 242.942 13.008C242.622 13.328 242.227 13.488 241.758 13.488ZM264.559 17.168V34H262.383V30.672C261.701 31.8027 260.794 32.6667 259.663 33.264C258.554 33.8613 257.295 34.16 255.887 34.16C254.309 34.16 252.879 33.7973 251.599 33.072C250.319 32.3467 249.317 31.3333 248.591 30.032C247.866 28.7307 247.503 27.248 247.503 25.584C247.503 23.92 247.866 22.4373 248.591 21.136C249.317 19.8347 250.319 18.832 251.599 18.128C252.879 17.4027 254.309 17.04 255.887 17.04C257.253 17.04 258.479 17.328 259.567 17.904C260.677 18.4587 261.583 19.28 262.287 20.368V17.168H264.559ZM256.079 32.144C257.253 32.144 258.309 31.8773 259.247 31.344C260.207 30.7893 260.954 30.0107 261.487 29.008C262.042 28.0053 262.319 26.864 262.319 25.584C262.319 24.304 262.042 23.1627 261.487 22.16C260.954 21.1573 260.207 20.3893 259.247 19.856C258.309 19.3013 257.253 19.024 256.079 19.024C254.885 19.024 253.807 19.3013 252.847 19.856C251.909 20.3893 251.162 21.1573 250.607 22.16C250.074 23.1627 249.807 24.304 249.807 25.584C249.807 26.864 250.074 28.0053 250.607 29.008C251.162 30.0107 251.909 30.7893 252.847 31.344C253.807 31.8773 254.885 32.144 256.079 32.144Z" fill="#080811"/>
<path d="M29.9533 0.514983C24.0257 0.590163 20.5422 4.6763 19.5046 12.6291C13.8733 18.4992 11.129 25.2613 11.5752 33.3603C10.9814 34.0288 9.27717 35.8128 7.72085 37.8934C3.64562 39.0089 0.533237 39.9741 0.533237 39.9741C0.162397 40.1224 -0.0604994 40.4942 0.0144634 40.866C0.162397 41.2379 0.533237 41.4614 0.904056 41.3862C0.904056 41.3862 3.20207 40.7177 6.46272 39.7506C5.94192 40.6425 5.49811 41.5346 5.20023 42.4265C4.68145 44.1354 2.75431 46.216 3.49595 47.4047C3.79182 47.8497 4.31058 48 4.82936 48C12.7588 47.555 17.6508 39.2326 18.5405 37.5967C20.0219 37.0765 21.3573 36.4812 22.6158 35.8127C27.8787 34.8475 28.1744 35.4409 30.9161 34.3274H34.3246C35.806 34.3274 36.9185 32.7669 35.881 30.7614C37.5852 28.9042 38.5498 27.0451 38.6228 26.8967C38.7707 26.5249 38.6228 26.0799 38.2519 25.9315C37.8811 25.7832 37.4373 25.9315 37.2894 26.3034C37.2894 26.3034 36.4747 27.939 34.9184 29.6479C33.7329 28.7559 32.9183 28.9042 30.3244 28.9042C33.8809 23.2578 33.2891 17.536 33.2891 9.6581C41.2938 9.6581 45.2961 9.28626 47.7395 11.3669C48.2583 11.8119 49 11.4421 49 10.7716C48.9271 2.81881 37.7349 -1.56568 29.9533 0.514983ZM4.90427 46.5132C5.12718 45.9178 6.31263 43.9123 6.68351 42.9472C7.79602 39.6027 11.6483 35.5166 12.6857 34.4009C13.5003 34.5492 15.6504 35.1445 17.2067 37.0769C16.0942 38.8588 11.6483 46.0679 4.90427 46.5132ZM34.8453 32.3205C34.8453 32.6171 34.6224 32.7655 34.3265 32.7655H33.5848C34.0286 32.4688 34.3995 32.1701 34.7703 31.8003C34.7703 32.0238 34.8453 32.1721 34.8453 32.3205ZM32.8452 30.3882C33.216 30.3882 33.5868 30.4633 33.8827 30.6848C30.4742 33.8058 27.6574 33.5823 25.8054 33.8058C27.1388 32.7655 28.3243 31.65 29.3619 30.3882L32.8452 30.3882ZM18.2443 36.11C18.2443 36.0348 18.1693 36.0348 18.1693 35.9616C18.5401 35.0697 20.0964 32.6923 25.7278 30.3153C26.0987 30.1669 26.2466 29.7199 26.0987 29.3501C25.9507 28.9782 25.5049 28.8299 25.1361 28.9783C19.8731 31.2073 17.798 33.5846 17.0588 34.9237C15.5774 33.6599 13.9461 33.2149 13.0565 32.9914C12.8336 28.2348 16.3921 24.4451 20.8381 22.3645C21.209 22.2161 21.3569 21.7691 21.209 21.3993C21.0611 21.0275 20.6152 20.8791 20.2464 21.0275C16.9108 22.6631 14.9108 24.5934 13.6502 26.4528C14.6128 21.7713 16.9858 17.5345 20.8378 13.5241C20.9857 13.3757 20.9857 13.2274 21.0607 13.0791C21.8024 6.98536 23.9504 3.49245 27.6569 2.3793C24.3214 4.08815 22.2461 8.32479 24.3963 12.6344C24.4713 13.7498 24.3963 14.6398 24.1005 15.2352C21.5066 20.7333 27.9548 24.4499 31.7342 21.2535C30.3988 28.9769 25.4322 33.4368 18.244 36.1104L18.2443 36.11ZM31.8076 18.4244C30.3992 21.7689 26.7678 21.397 25.4345 19.4647C24.6928 18.4995 24.6928 17.1605 25.2865 15.8235C25.7303 14.9316 25.8803 13.7429 25.7303 12.3307C25.7303 12.2556 25.7303 12.1072 25.6554 12.0341C23.5053 7.94793 26.0992 4.08336 29.2868 3.2667V5.79236C29.2868 7.42802 30.3243 8.83819 31.8057 9.35835C31.8077 20.2085 31.8076 17.4589 31.8076 18.4244ZM33.141 8.16931C32.1035 8.16931 31.1409 7.42563 30.843 6.46047C35.5869 6.31214 40.6245 6.46047 44.1833 8.39278C42.2561 8.09612 41.0705 8.16931 33.141 8.16931ZM30.7701 4.97519V1.77904C36.7723 0.442056 45.0726 3.19118 46.9999 8.46576C42.9977 5.12328 36.6976 4.75167 30.7701 4.97519Z" fill="black"/>
</svg>
