<svg width="40" height="28" viewBox="0 0 40 28" fill="none" xmlns="http://www.w3.org/2000/svg">
<path d="M20.1288 0H20.3513C22.4064 0.00747397 32.8196 0.0822141 35.6272 0.834594C36.476 1.06422 37.2495 1.51179 37.8703 2.13259C38.4911 2.7534 38.9375 3.52568 39.165 4.37227C39.4175 5.31898 39.595 6.57211 39.715 7.86511L39.74 8.12421L39.795 8.77195L39.815 9.03105C39.9775 11.3081 39.9975 13.4407 40 13.9066V14.0934C39.9975 14.5767 39.975 16.8538 39.795 19.2256L39.775 19.4871L39.7525 19.7462C39.6275 21.1713 39.4425 22.5863 39.165 23.6277C38.9375 24.4743 38.4911 25.2466 37.8703 25.8674C37.2495 26.4882 36.476 26.9358 35.6272 27.1654C32.727 27.9427 21.7039 27.9975 20.1763 28H19.8212C19.0487 28 15.8535 27.9851 12.5033 27.8704L12.0783 27.8555L11.8607 27.8455L11.4332 27.8281L11.0057 27.8107C8.23051 27.6886 5.58785 27.4918 4.37027 27.1629C3.52179 26.9335 2.74855 26.4863 2.12776 25.866C1.50698 25.2456 1.06037 24.4739 0.832552 23.6277C0.555035 22.5888 0.370023 21.1713 0.245015 19.7462L0.225014 19.4846L0.205013 19.2256C0.0809136 17.5375 0.0125391 15.8458 0 14.1532L0 13.8468C0.00500031 13.3111 0.0250016 11.4601 0.16001 9.41721L0.177511 9.1606L0.185012 9.03105L0.205013 8.77195L0.260016 8.12421L0.285018 7.86511C0.405025 6.57211 0.582536 5.31649 0.835052 4.37227C1.06249 3.52568 1.50892 2.7534 2.12973 2.13259C2.75054 1.51179 3.52399 1.06422 4.37277 0.834594C5.59035 0.510722 8.23302 0.311415 11.0082 0.186849L11.4332 0.16941L11.8632 0.154463L12.0783 0.146988L12.5058 0.129549C14.8852 0.0533233 17.2656 0.0109662 19.6462 0.00249144L20.1288 0ZM16.001 7.99715V20.0004L26.3942 14.0012L16.001 7.99715Z" fill="white"/>
</svg>
